<svg id="Layer_1" enable-background="new 0 0 239.532 177.317" height="512" viewBox="0 0 239.532 177.317" width="512" xmlns="http://www.w3.org/2000/svg"><g><g><path d="m37.16 109.024c-.002 0-.002 0-.004 0-4.689.254-9.069-1.657-12.111-4.896h-20.344c-2.596 0-4.701 2.105-4.701 4.701v50.931c0 2.597 2.105 4.701 4.701 4.701h.715v3.667h12.5v-3.667h24.5v3.667h12.5v-3.667h.716c2.597 0 4.701-2.104 4.701-4.701v-50.931c0-.945-.285-1.822-.766-2.56-6.674.379-13.518 1.22-20.354 2.508-.678.128-1.368.21-2.053.247z"/><path d="m154.151 122.588-.211.265-.27.208c-.987.777-2.082 1.412-3.253 1.902-.278.489-.563.974-.839 1.464l-.944-.583c-1.733.774-3.602 1.238-5.499 1.341-.286.016-.57.022-.857.023-3.451-.006-6.719-1.127-9.441-3.232-.159-.123-11.087-8.267-30.735-13.541l-20.138 32.615 9.359 5.779 7.355-11.913 34.816 21.497c-1.92 4.311-3.778 8.648-5.538 13.033l9.508 5.871c13.527-34.209 32.085-66.165 55.033-94.819-14.555 11.751-23.419 21.585-38.346 40.09zm-18.15 30.32-34.17-21.098 9.807-15.883 32.682 20.181c-2.91 5.527-5.682 11.129-8.319 16.8z"/><path d="m33.468 78.313c8.304-1.565 16.655-2.584 24.825-3.025 3.284-.178 6.596-.266 9.848-.262 20.079.029 39.185 3.474 56.808 10.238.192-.138.373-.274.563-.412-15.99-8.399-39.479-16.576-69.723-16.566-7.304 0-14.993.476-23.051 1.528-6.844.894-11.67 7.169-10.775 14.013.117.901.334 1.765.627 2.588.286-.55.595-1.09.949-1.609 2.333-3.419 5.859-5.724 9.929-6.493z"/><path d="m216.786 21.55c.174 4.277-.766 8.651-2.959 12.676-.631 1.157-1.355 2.24-2.145 3.263 3.729 2.717 6.487 5.105 8.362 7.079 2.527 2.621 3.354 4.467 3.457 4.973-.188.212-.643.635-1.419 1.105-1.887 1.193-5.502 2.472-9.423 3.314-4.513 1.008-9.396 1.555-13.09 1.846-.645-.655-1.301-1.174-1.925-1.472-10.359-5.042-20.716-10.081-31.07-15.122-.477-.902-1.058-2.033-1.688-3.322-1.658-3.396-3.632-7.931-4.846-12.04-.82-2.725-1.258-5.275-1.24-6.826-.001-.348.02-.642.048-.867.148-.014.329-.021.547-.021 1.503-.037 4.504.513 8.803 2.085.448-2.54 1.303-5.051 2.603-7.437 1.39-2.549 3.195-4.779 5.301-6.64-6.446-2.606-11.74-3.955-16.682-4.008-2.376-.004-4.722.336-6.96 1.206-2.232.856-4.311 2.304-5.836 4.104-3.098 3.688-3.808 7.932-3.823 11.553.011 3.977.83 7.746 1.901 11.398 1.081 3.64 2.46 7.13 3.817 10.22.59 1.343 1.177 2.603 1.738 3.767-2.081 19.32-4.457 32.163-24.9 46.261-13.795-5.47-33.159-10.583-57.221-10.618-10.518-.016-21.922.935-34.111 3.234-6.785 1.28-11.248 7.817-9.969 14.602 1.278 6.782 7.815 11.246 14.6 9.967 10.641-2.006 20.461-2.816 29.441-2.803 42.015.033 66.27 18.339 66.566 18.568 2.268 1.756 4.954 2.609 7.62 2.613 2.279.003 4.541-.621 6.522-1.825 1.04-.383 2.063-.934 3.012-1.679 17.936-22.238 27.27-32.305 49.781-49.01.785-.066 1.608-.142 2.471-.229 5.838-.615 13.148-1.688 19.855-4.107 4.447-1.675 8.866-3.794 12.316-8.133 1.939-2.461 3.32-5.905 3.291-9.482-.042-5.424-2.585-10.113-6.383-14.537-3.766-4.344-9.047-8.74-16.362-13.656z"/></g><ellipse cx="192.314" cy="22.505" rx="22.5" ry="22.5" transform="matrix(.479 -.878 .878 .479 80.537 180.609)"/></g></svg>